<mxfile host="app.diagrams.net" modified="2023-05-28T16:34:16.082Z" agent="Mozilla/5.0 (Windows NT 10.0; Win64; x64) AppleWebKit/537.36 (KHTML, like Gecko) Chrome/113.0.0.0 Safari/537.36" version="21.3.5" etag="k0wimyrOFZn1POUlF3qX" type="github">
  <diagram name="Page-1" id="NGcukSWzPwq1H8aafLw-">
    <mxGraphModel>
      <root>
        <mxCell id="0" />
        <mxCell id="1" parent="0" />
      </root>
    </mxGraphModel>
  </diagram>
</mxfile>
